<?xml version="1.0" encoding="UTF-8"?><svg id="Layer_4" xmlns="http://www.w3.org/2000/svg" viewBox="0 0 257.67 352.96"><defs><style>.cls-1{fill:#47362c;}.cls-2{fill:#775640;}</style></defs><path class="cls-2" d="M23.61,81.71L1.7,27.52C-.77,21.4-.05,14.48,3.63,9.02,7.34,3.53,13.47,.25,20.03,.25c1.49,0,2.99,.17,4.47,.5L193.44,39.3c10.69,2.44,18.15,11.81,18.14,22.78l-.34,267.33c-.02,12.85-10.48,23.3-23.33,23.3H48.86c-13.81,0-25-11.2-25-25V82.96c0-.43-.08-.85-.25-1.25Zm177.97-19.65c.01-6.22-4.3-11.62-10.36-13.01L22.27,10.5c-7.74-1.76-14.27,5.91-11.29,13.27l21.91,54.19c.64,1.59,.97,3.29,.97,5v246.42c0,7.36,5.96,13.33,13.32,13.33H187.91c7.35,0,13.32-5.96,13.33-13.31l.34-267.34Z"/><path class="cls-1" d="M247.67,231.48h-10c-5.52,0-10-4.48-10-10v-91.5H23.58v-30H232.25c14.02,0,25.42,12.3,25.42,27.42v94.08c0,5.52-4.48,10-10,10Z"/></svg>